<?xml version="1.0" encoding="UTF-8" standalone="no"?>
<!DOCTYPE svg PUBLIC "-//W3C//DTD SVG 1.1//EN" "http://www.w3.org/Graphics/SVG/1.1/DTD/svg11.dtd">
<svg width="100%" height="100%" viewBox="0 0 64 64" version="1.1" xmlns="http://www.w3.org/2000/svg" xmlns:xlink="http://www.w3.org/1999/xlink" xml:space="preserve" xmlns:serif="http://www.serif.com/" style="fill-rule:evenodd;clip-rule:evenodd;stroke-linecap:round;stroke-linejoin:round;stroke-miterlimit:1.5;">
    <path d="M32.25,1.478L62.68,23.586L51.057,59.358L13.443,59.358L1.82,23.586L32.25,1.478ZM40.522,28.402L52.132,21.646L52.262,21.341C54.289,24.777 55.452,28.782 55.452,33.057C55.452,45.813 45.095,56.169 32.339,56.169C19.583,56.169 9.227,45.813 9.227,33.057C9.227,28.92 10.316,25.035 12.224,21.674L23.349,27.965C22.451,29.452 21.935,31.195 21.935,33.057C21.935,38.507 26.36,42.933 31.811,42.933C37.262,42.933 41.687,38.507 41.687,33.057C41.687,31.374 41.266,29.789 40.522,28.402ZM32.25,29.596C34.16,29.596 35.711,31.147 35.711,33.057C35.711,34.967 34.16,36.517 32.25,36.517C30.34,36.517 28.789,34.967 28.789,33.057C28.789,31.147 30.34,29.596 32.25,29.596ZM25.878,27.75C27.4,25.925 29.69,24.762 32.25,24.762C34.902,24.762 37.265,26.01 38.784,27.949L36.594,29.223C35.532,28.021 33.979,27.262 32.25,27.262C30.626,27.262 29.158,27.932 28.105,29.009L25.878,27.75ZM20.758,24.854C23.321,21.272 27.515,18.936 32.25,18.936C37.051,18.936 41.295,21.337 43.847,25.003L41.677,26.265C39.566,23.341 36.129,21.436 32.25,21.436C28.447,21.436 25.069,23.267 22.949,26.093L20.758,24.854ZM15.15,21.683C18.806,16.28 24.991,12.726 32,12.726C39.135,12.726 45.417,16.41 49.046,21.977L46.882,23.237C43.689,18.411 38.214,15.226 32,15.226C25.924,15.226 20.554,18.271 17.334,22.918L15.15,21.683Z" style="fill:rgb(185,163,126);stroke:rgb(59,114,124);stroke-width:1px;"/>
</svg>
